<?xml version="1.0" standalone="no"?><!DOCTYPE svg PUBLIC "-//W3C//DTD SVG 1.1//EN" "http://www.w3.org/Graphics/SVG/1.1/DTD/svg11.dtd"><svg t="1672800804393" class="icon" viewBox="0 0 1024 1024" version="1.1" xmlns="http://www.w3.org/2000/svg" p-id="1093" xmlns:xlink="http://www.w3.org/1999/xlink" width="128" height="128"><path d="M141 636C64 636 2 574 2 497s62-139 139-139 139 62 139 139-62 139-139 139z m0-198a59 59 0 1 0 59 59 59 59 0 0 0-59-59zM513 636c-77 0-139-62-139-139s62-139 139-139 139 62 139 139-62 139-139 139z m0-198a59 59 0 1 0 59 59 59 59 0 0 0-59-59zM885 636c-77 0-139-62-139-139s62-139 139-139 139 62 139 139-62 139-139 139z m0-198a59 59 0 1 0 59 59 59 59 0 0 0-59-59z" fill="" p-id="1094"></path></svg>